# xmcd
#
# Track frame offsets: 
#        150
#        13310
#        22323
#        31793
#        40661
#        48789
#        57603
#        66190
#        73473
#        81083
#        91011
#        99744
#        111501
#        122185
#        132883
#        147396
#        156527
#        163963
#        172182
#        184161
#        196110
#        208955
#        219610
#        230079
#        241112
#        251798
#        260575
#
# Disc length: 3613 seconds
#
# Revision: 0
# Processed by: cddbd v1.5.2PL0 Copyright (c) Steve Scherf et al.
# Submitted via: ExactAudioCopy v1.1
#
DISCID=a80e1b1b
DTITLE=Leroy Van Dyke  - Walk On By (Jasmine)_CD1
DYEAR=2015
DGENRE=Country
TTITLE0=The Auctioneer 
TTITLE1=I Fell In Love With A Ponytail
TTITLE2=The Pocket Book Song
TTITLE3=Honky Tonk
TTITLE4=Heartbreak Cannonball
TTITLE5=I'm Movin' On
TTITLE6=Chicken Shack Boogie
TTITLE7=One Heart
TTITLE8=Every Time I Ask My Heart
TTITLE9=Leather Jacket
TTITLE10=My Good Mind Went Bad On Me
TTITLE11=Poor Boy
TTITLE12=What This Old World Needs
TTITLE13=Down At The South End Of Town
TTITLE14=Conscience I'm Guilty
TTITLE15=The Day The Preacher Comes
TTITLE16=Fireball Mail
TTITLE17=If You Don't Somebody Else Will
TTITLE18=Put Your Little Hand In Mine
TTITLE19=Big Man In A Big House
TTITLE20=Faded Love
TTITLE21=Walk On By
TTITLE22=My World Is Caving In 
TTITLE23=Save Me The Moonlight
TTITLE24=If A Woman Answers
TTITLE25=A Broken Promise
TTITLE26=Geh' Nicht Vorbei
EXTD=
EXTT0=
EXTT1=
EXTT2=
EXTT3=
EXTT4=
EXTT5=
EXTT6=
EXTT7=
EXTT8=
EXTT9=
EXTT10=
EXTT11=
EXTT12=
EXTT13=
EXTT14=
EXTT15=
EXTT16=
EXTT17=
EXTT18=
EXTT19=
EXTT20=
EXTT21=
EXTT22=
EXTT23=
EXTT24=
EXTT25=
EXTT26=
PLAYORDER=
